<?xml version="1.0" encoding="UTF-8" standalone="no"?>
<!-- Created with Inkscape (http://www.inkscape.org/) -->

<svg
   width="297mm"
   height="297mm"
   viewBox="0 0 297 297"
   version="1.1"
   id="svg1"
   xml:space="preserve"
   inkscape:version="1.3 (0e150ed6c4, 2023-07-21)"
   sodipodi:docname="cafelogo.svg"
   xmlns:inkscape="http://www.inkscape.org/namespaces/inkscape"
   xmlns:sodipodi="http://sodipodi.sourceforge.net/DTD/sodipodi-0.dtd"
   xmlns="http://www.w3.org/2000/svg"
   xmlns:svg="http://www.w3.org/2000/svg"><sodipodi:namedview
     id="namedview1"
     pagecolor="#ffffff"
     bordercolor="#000000"
     borderopacity="0.25"
     inkscape:showpageshadow="2"
     inkscape:pageopacity="0.0"
     inkscape:pagecheckerboard="0"
     inkscape:deskcolor="#d1d1d1"
     inkscape:document-units="mm"
     inkscape:zoom="0.51213161"
     inkscape:cx="539.90028"
     inkscape:cy="522.32667"
     inkscape:window-width="1920"
     inkscape:window-height="1009"
     inkscape:window-x="-8"
     inkscape:window-y="-8"
     inkscape:window-maximized="1"
     inkscape:current-layer="layer1" /><defs
     id="defs1" /><g
     inkscape:label="Camada 1"
     inkscape:groupmode="layer"
     id="layer1"><path
       style="fill:#4f2e1b;stroke:none;stroke-width:2.29616;fill-opacity:1"
       d="m 153.89099,74.104613 0.23235,0.232353 -0.23235,-0.232353 m 0.23235,0.464706 c 2.99972,7.214394 3.07348,13.216558 -0.76946,20.214014 -5.35682,9.754057 -16.35528,19.542117 -9.45374,31.366617 h 0.23235 c 0,-12.43338 10.91347,-19.37041 14.46438,-30.437237 1.56193,-4.867843 0.97129,-10.193248 -0.95607,-14.870071 -0.85424,-2.072853 -1.85009,-4.732926 -3.51746,-6.273323 m 13.47603,17.425877 c -1.3428,12.635254 -16.46903,17.936954 -18.67691,30.204874 -0.458,2.54485 -0.0117,4.97013 0.55399,7.43504 h 0.23234 c 0.20964,-10.1603 8.39617,-15.94951 14.07444,-23.23449 2.77247,-3.55697 5.75656,-9.781249 3.81614,-14.405424 m -2.78815,106.414114 v -0.23236 c -5.05269,-0.10422 -10.50198,-1.62769 -15.33477,-3.02049 -16.22146,-4.6749 -30.71213,-14.20663 -38.62938,-29.50784 -1.59543,-3.08336 -3.33325,-6.35005 -4.12214,-9.75851 h 0.23232 c 1.80717,5.7087 7.46798,11.87588 11.61728,16.03183 14.76012,14.78386 36.07355,22.16523 55.29817,10.91754 3.67932,-2.15265 7.24627,-4.8312 10.21403,-7.89794 5.75322,-5.94511 10.53337,-13.26533 13.71482,-20.91016 1.23958,-2.97868 2.39359,-5.99974 3.41042,-9.06146 0.31878,-0.95989 0.50245,-2.90754 1.35767,-3.537 0.9247,-0.68058 2.79142,0.48188 3.59903,0.95251 2.79932,1.6313 5.20101,4.7784 4.83891,8.16076 -0.47147,4.40377 -4.50548,6.86319 -7.8594,9.02992 -3.77134,2.43639 -8.5788,6.15002 -10.22319,10.48707 5.35235,-1.31862 10.36875,-2.56722 15.10243,-5.56534 8.18199,-5.18212 16.07793,-18.28248 7.16308,-26.62864 -2.0087,-1.88057 -4.51527,-2.98567 -7.16308,-3.61407 -1.23396,-0.29285 -3.29911,-0.11921 -4.31722,-0.88816 -0.78725,-0.59462 -0.98655,-1.96695 -1.46325,-2.80246 -0.83891,-1.47039 -1.99859,-2.78211 -3.28099,-3.88013 -5.96926,-5.11104 -14.70582,-7.53312 -22.30512,-8.87933 -3.94607,-0.69901 -7.88124,-1.21712 -11.84962,-1.74456 -1.44391,-0.19195 -3.89857,-0.8034 -5.2776,-0.22594 -1.77466,0.74321 -3.83383,4.09265 -4.24855,5.9008 9.84406,0 21.09381,1.42853 30.20486,5.30916 1.29793,0.55281 2.53794,1.11249 3.71754,1.89442 0.73169,0.48505 1.45094,0.98474 2.04806,1.63485 4.99804,5.44117 -5.56263,9.39325 -9.48312,10.54481 -2.76441,0.81198 -5.53405,1.49228 -8.36442,2.03823 -18.14808,3.50071 -37.92852,3.24833 -55.99518,-0.66423 -4.41944,-0.95709 -9.2852,-2.32889 -13.01134,-4.96783 -1.4672,-1.03909 -3.35812,-2.86971 -2.75373,-4.86922 1.05212,-3.48064 5.74536,-5.16165 8.7947,-6.31651 5.67424,-2.14898 12.10178,-3.263 18.12292,-3.86739 3.24482,-0.32569 7.11607,-0.0503 10.22321,-0.96864 l -0.23235,-6.04097 c -10.85353,0 -22.46617,1.90918 -32.76069,5.34392 -4.44326,1.48249 -9.644447,3.49572 -12.702597,7.20271 -3.9702,4.81253 -2.26794,11.39512 -1.3342,16.96121 2.38376,14.20945 7.72442,29.54711 18.683707,39.45923 14.94048,13.5129 35.13095,15.49848 54.36878,13.98016 m -58.08629,-42.75151 -0.23235,0.23233 0.23235,-0.23233 m 104.09065,15.10243 v 0.23235 c 2.52295,0.97883 5.0191,2.38531 7.20269,3.98587 1.64281,1.20426 3.22725,2.53913 4.49147,4.14619 3.96336,5.03834 2.43237,10.22491 -1.93569,14.39627 -5.90792,5.6419 -14.6214,8.40895 -22.30512,10.59914 -13.96129,3.97959 -28.54868,5.32385 -42.98386,5.67758 -17.31579,0.42428 -34.69808,-0.8076 -51.58065,-5.02827 -8.437347,-2.10931 -17.724122,-5.0364 -24.39624,-10.84185 -4.591085,-3.99476 -6.493295,-9.4008 -2.579097,-14.57052 1.121332,-1.481 2.511199,-2.7167 3.973166,-3.85107 2.111251,-1.63815 4.50383,-3.02173 6.970364,-4.04866 v -0.23236 c -4.624537,1.06988 -9.198262,3.16269 -13.476013,5.18081 -3.196625,1.50806 -6.299543,3.40516 -9.061482,5.61143 -5.665413,4.52558 -9.851593,11.69998 -5.703208,18.7156 1.372968,2.32191 3.188659,4.23952 5.238532,5.97216 8.904221,7.52608 21.389785,11.16339 32.528321,13.8041 17.631067,4.17991 35.614047,5.54242 53.671757,5.54938 20.9866,0.009 42.39534,-2.02052 62.50085,-8.44438 8.0567,-2.57418 17.07864,-6.00075 23.23451,-12.00539 2.98426,-2.91097 5.37606,-6.17836 5.769,-10.45214 0.43805,-4.76422 -2.82947,-9.22685 -6.23368,-12.14489 -6.90727,-5.92076 -16.46834,-10.22081 -25.32562,-12.25135 z"
       id="path1" /></g></svg>
